<svg width="512" height="512" viewBox="0 0 512 512" fill="none" xmlns="http://www.w3.org/2000/svg">
<path d="M368 16H144C73.3075 16 16 73.3076 16 144V368C16 438.692 73.3075 496 144 496H368C438.692 496 496 438.692 496 368V144C496 73.3076 438.692 16 368 16Z" fill="#EEEEEE"/>
<path d="M16 146C16 74.203 74.203 16 146 16H256V256H16V146Z" fill="#49A8EE"/>
<path d="M256 16H366C437.797 16 496 74.203 496 146V256H256V16Z" fill="#FCEA60"/>
<path d="M256 256H496V366C496 437.797 437.797 496 366 496H256V256Z" fill="#E25241"/>
<path d="M16 256H256V496H146C74.203 496 16 437.797 16 366V256Z" fill="#3B877B"/>
</svg>
